<?xml version="1.0" standalone="no"?>
<!DOCTYPE svg PUBLIC "-//W3C//DTD SVG 20010904//EN"
 "http://www.w3.org/TR/2001/REC-SVG-20010904/DTD/svg10.dtd">
<svg version="1.0" xmlns="http://www.w3.org/2000/svg"
 width="1190.000000pt" height="1190.000000pt" viewBox="0 0 1190.000000 1190.000000"
 preserveAspectRatio="xMidYMid meet">

<g transform="translate(0.000000,1190.000000) scale(0.100000,-0.100000)"
fill="#000000" stroke="none">
<path d="M0 5950 l0 -5950 5950 0 5950 0 0 5950 0 5950 -5950 0 -5950 0 0
-5950z m5568 2868 c9 -9 12 -358 12 -1507 l0 -1496 -692 -692 c-630 -630 -696
-693 -725 -693 -22 0 -36 6 -43 19 -6 13 -10 247 -10 690 0 369 -2 671 -5 671
-3 0 -574 -569 -1268 -1265 -695 -696 -1269 -1265 -1277 -1265 -7 0 -22 7 -32
17 -17 15 -18 53 -18 776 l0 760 1997 1998 c2073 2075 2022 2026 2061 1987z"/>
</g>
</svg>
